# xmcd
# 
# Track frame offsets:
#     150
#     17897
#     31182
#     46117
#     57957
#     74870
#     89917
#     105082
#     119840
#     132825
# 
# Disc length: 1971
# 
# Revision: 4
# Processed by: cddbd v1.5.2PL0 Copyright (c) Steve Scherf et al.
# Submitted via: BonkEnc v1.0
# 
DISCID=8d07b10a
DTITLE=Various Country - Country Duets-Two By Two
DYEAR=0
DGENRE=country
TTITLE0=Meet Me In Montana - Marie Osmond and Dan Seals
TTITLE1=Shaky Ground - Lacy J.Dalton and Glen Campbell
TTITLE2=Don't You Ever Think About Leaving - Tanya Tucker and Dean Dillon
TTITLE3=United We Stand - Anne Murray and Waylon Jennings
TTITLE4=Angels Love Bad Men - Barbara Mandrell and Waylon Jennings
TTITLE5=You're Still New To Me - Marie Osmond and Paul Davis
TTITLE6=WoodcarverLacy J.Dalton and Glen Campbell
TTITLE7=Don't Go Out - Tanya Tucker and T.Graham Brown
TTITLE8=We All Pull The Load - Anne Murray and Glen Campbell
TTITLE9=Crazy Arms - Barbara Mandrell and Ray Price
EXTD=
EXTT0=
EXTT1=
EXTT2=
EXTT3=
EXTT4=
EXTT5=
EXTT6=
EXTT7=
EXTT8=
EXTT9=
PLAYORDER=
